# File created by Blade
# Date/Time:  Tue Jan 27 17:16:36 2015
#---------------------------------------------------------
:version 1.10
:name HOM
:units
  mass 1.0
  length 1.000000
  angle deg
:documentation
     Acclaim Skeleton File
:root
   axis xyz
   order TX TY TZ RX RY RZ
   position 0.000000 0.000000 0.000000
   orientation 0 0 0
:bonedata
   begin
      id 1
      name Spine_dum
      direction 0.000000 1.000000 0.000000
      length 7.539951
      axis 0.0 0.0 0.0 xyz
   end
   begin
      id 2
      name LeftUpLeg_dum
      direction 1.000000 0.000000 0.000000
      length 3.345476
      axis 0.0 0.0 0.0 xyz
   end
   begin
      id 3
      name RightUpLeg_dum
      direction -1.000000 0.000000 0.000000
      length 3.345476
      axis 0.0 0.0 0.0 xyz
   end
   begin
      id 4
      name Spine
      direction 0.000000 1.000000 0.000000
      length 0.000000
      axis 0.0 0.0 0.0 xyz
      dof rx ry rz
   end
   begin
      id 5
      name Spine_dum1
      direction 0.000000 1.000000 0.000000
      length 15.093809
      axis 0.0 0.0 0.0 xyz
   end
   begin
      id 6
      name Spine_dum2
      direction 0.000000 1.000000 0.000000
      length 9.738928
      axis 0.0 0.0 0.0 xyz
   end
   begin
      id 7
      name Spine_dum3
      direction 0.000000 1.000000 0.000000
      length 9.738928
      axis 0.0 0.0 0.0 xyz
   end
   begin
      id 8
      name Head
      direction 0.000000 1.000000 0.000000
      length 4.527550
      axis 0.0 0.0 0.0 xyz
      dof rx ry rz
   end
   begin
      id 9
      name LeftShoulder
      direction 1.000000 0.000000 0.000000
      length 7.084015
      axis 0.0 0.0 -90.0 xyz
      dof rx ry rz
   end
   begin
      id 10
      name LeftArm
      direction 1.000000 0.000000 0.000000
      length 10.259319
      axis 0.0 0.0 -90.0 xyz
      dof rx ry rz
   end
   begin
      id 11
      name LeftForeArm
      direction 1.000000 0.000000 0.000000
      length 9.896984
      axis 0.0 0.0 -90.0 xyz
      dof ry rz rx
   end
   begin
      id 12
      name LeftHand
      direction 0.000000 0.000000 0.000000
      length 0.000000
      axis 0.0 0.0 -90.0 xyz
      dof rx ry rz
   end
   begin
      id 13
      name LeftHand_dum1
      direction 0.000000 0.000000 0.000000
      length 0.000000
      axis 0.0 0.0 -90.0 xyz
   end
   begin
      id 14
      name LeftHand_dum2
      direction 1.000000 0.000000 0.000000
      length 3.937000
      axis 0.0 0.0 -90.0 xyz
   end
   begin
      id 15
      name LeftHandThumb1
      direction 0.000000 0.000000 1.000000
      length 3.937000
      axis 0.0 0.0 -90.0 xyz
      dof rx rz ry
   end
   begin
      id 16
      name RightShoulder
      direction -1.000000 0.000000 0.000000
      length 7.084015
      axis 0.0 0.0 90.0 xyz
      dof rx ry rz
   end
   begin
      id 17
      name RightArm
      direction -1.000000 0.000000 0.000000
      length 10.259319
      axis 0.0 0.0 90.0 xyz
      dof rx ry rz
   end
   begin
      id 18
      name RightForeArm
      direction -1.000000 0.000000 0.000000
      length 9.896984
      axis 0.0 0.0 90.0 xyz
      dof ry rz rx
   end
   begin
      id 19
      name RightHand
      direction 0.000000 0.000000 0.000000
      length 0.000000
      axis 0.0 0.0 90.0 xyz
      dof rx ry rz
   end
   begin
      id 20
      name RightHand_dum1
      direction 0.000000 0.000000 0.000000
      length 0.000000
      axis 0.0 0.0 90.0 xyz
   end
   begin
      id 21
      name RightHand_dum2
      direction -1.000000 0.000000 0.000000
      length 3.937000
      axis 0.0 0.0 90.0 xyz
   end
   begin
      id 22
      name RightHandThumb1
      direction 0.000000 0.000000 1.000000
      length 3.937000
      axis 0.0 0.0 90.0 xyz
      dof rx rz ry
   end
   begin
      id 23
      name LeftUpLeg
      direction 0.000000 -1.000000 0.000000
      length 19.114733
      axis 0.0 0.0 0.0 xyz
      dof rx ry rz
   end
   begin
      id 24
      name LeftLeg
      direction 0.000000 -1.000000 0.000000
      length 16.045604
      axis 0.0 0.0 0.0 xyz
      dof rx ry rz
   end
   begin
      id 25
      name LeftFoot
      direction 0.000000 -0.258819 0.965926
      length 5.543155
      axis 15.0 0.0 0.0 xyz
      dof rx ry rz
   end
   begin
      id 26
      name LeftToeBase
      direction 0.000000 0.000000 1.000000
      length 2.952750
      axis 0.0 0.0 0.0 xyz
      dof rx ry rz
   end
   begin
      id 27
      name RightUpLeg
      direction 0.000000 -1.000000 0.000000
      length 19.114733
      axis 0.0 0.0 0.0 xyz
      dof rx ry rz
   end
   begin
      id 28
      name RightLeg
      direction 0.000000 -1.000000 0.000000
      length 16.045604
      axis 0.0 0.0 0.0 xyz
      dof rx ry rz
   end
   begin
      id 29
      name RightFoot
      direction 0.000000 -0.258819 0.965926
      length 5.543155
      axis 15.0 0.0 0.0 xyz
      dof rx ry rz
   end
   begin
      id 30
      name RightToeBase
      direction 0.000000 0.000000 1.000000
      length 2.952750
      axis 0.0 0.0 0.0 xyz
      dof rx ry rz
   end
:hierarchy
   begin
      root Spine_dum LeftUpLeg_dum RightUpLeg_dum
      Spine_dum Spine
      LeftUpLeg_dum LeftUpLeg
      RightUpLeg_dum RightUpLeg
      Spine Spine_dum1 Spine_dum2 Spine_dum3
      Spine_dum1 Head
      Spine_dum2 LeftShoulder
      Spine_dum3 RightShoulder
      LeftShoulder LeftArm
      LeftArm LeftForeArm
      LeftForeArm LeftHand
      LeftHand LeftHand_dum1 LeftHand_dum2
      LeftHand_dum1 LeftHandThumb1
      RightShoulder RightArm
      RightArm RightForeArm
      RightForeArm RightHand
      RightHand RightHand_dum1 RightHand_dum2
      RightHand_dum1 RightHandThumb1
      LeftUpLeg LeftLeg
      LeftLeg LeftFoot
      LeftFoot LeftToeBase
      RightUpLeg RightLeg
      RightLeg RightFoot
      RightFoot RightToeBase
   end

# File created by Blade
# Date/Time:  Tue Jan 27 17:16:27 2015
# Frame Rate: 120.000 fps
#------------------------------------------------------
:FULLY-SPECIFIED
:DEGREES
1
root -0.292171 36.904863 2.544633 8.525857 0.137091 -1.745958
Spine -4.860648 6.643473 2.506213
Head -3.145135 -1.831335 -0.608097
LeftShoulder -8.186865 -8.514927 15.651405
LeftArm -8.460944 -17.940524 -26.137013
LeftForeArm 2.113573 -0.000000 29.351759
LeftHand -8.889565 0.000000 20.745781
LeftHandThumb1 -26.253704 0.000000 33.147579
RightShoulder -8.614477 -8.317455 -16.753421
RightArm 0.291828 34.328748 30.855493
RightForeArm -179.234094 -0.000000 19.248594
RightHand 6.310120 0.000000 -1.804868
RightHandThumb1 -24.326973 -0.000000 -32.862282
LeftUpLeg -8.292156 7.787996 6.530996
LeftLeg 13.557397 -0.000000 -0.000000
LeftFoot -18.641456 0.825856 -17.935515
LeftToeBase 13.631045 -0.000000 -0.000000
RightUpLeg -13.680012 -8.415696 4.273251
RightLeg 21.243352 -0.000000 -0.000000
RightFoot -17.980112 -10.944785 5.722446
RightToeBase 0.834697 -0.000000 -0.000000
2
root -0.331229 36.879439 2.533647 8.329627 0.050625 -1.654576
Spine -4.568784 6.638510 2.394734
Head -3.144155 -1.814111 -0.560478
LeftShoulder -8.074570 -8.428023 15.527632
LeftArm -8.775435 -18.166722 -26.348394
LeftForeArm 0.698807 -0.000000 30.468284
LeftHand -9.151979 -0.000000 22.349148
LeftHandThumb1 -26.253704 0.000000 33.147579
RightShoulder -8.525300 -8.515704 -16.572769
RightArm 0.624924 34.076121 31.274596
RightForeArm -179.132029 -0.000000 19.405143
RightHand 6.356633 -0.000000 -1.805774
RightHandThumb1 -24.326973 -0.000000 -32.862282
LeftUpLeg -8.436973 7.834202 6.521717
LeftLeg 14.301039 -0.000000 -0.000000
LeftFoot -18.904647 0.711047 -18.019819
LeftToeBase 13.593502 -0.000000 -0.000000
RightUpLeg -13.654407 -8.142373 4.352212
RightLeg 21.376755 -0.000000 -0.000000
RightFoot -18.267310 -11.708534 5.558696
RightToeBase 0.867268 -0.000000 -0.000000
3
root -0.370147 36.852547 2.520071 8.161386 -0.021737 -1.548446
Spine -4.314147 6.620661 2.275072
Head -3.120976 -1.799521 -0.576088
LeftShoulder -8.002946 -8.361137 15.450306
LeftArm -9.034683 -18.804037 -26.635071
LeftForeArm -0.574766 -0.000000 31.566606
LeftHand -8.909313 0.000000 23.246284
LeftHandThumb1 -26.253704 0.000000 33.147579
RightShoulder -8.443947 -8.632191 -16.387021
RightArm 0.939605 33.823348 31.668823
RightForeArm -179.157714 -0.000000 19.560241
RightHand 6.475100 -0.000000 -1.841111
RightHandThumb1 -24.326973 -0.000000 -32.862282
LeftUpLeg -8.630489 7.829686 6.491625
LeftLeg 15.080436 -0.000000 -0.000000
LeftFoot -19.186414 0.655929 -18.134073
LeftToeBase 13.523283 -0.000000 -0.000000
RightUpLeg -13.633543 -7.855821 4.409164
RightLeg 21.521331 -0.000000 -0.000000
RightFoot -18.528522 -12.517418 5.271848
RightToeBase 0.966134 -0.000000 -0.000000
4
root -0.417549 36.825265 2.506997 7.985988 -0.098120 -1.485617
Spine -4.049391 6.604535 2.192901
Head -3.092821 -1.749746 -0.578814
LeftShoulder -7.951644 -8.339416 15.311315
LeftArm -9.265719 -19.316424 -26.809865
LeftForeArm -1.954058 -0.000000 32.652734
LeftHand -9.115201 -0.000000 24.486972
LeftHandThumb1 -26.253704 0.000000 33.147579
RightShoulder -8.384882 -8.742941 -16.180482
RightArm 1.324388 33.512887 32.097955
RightForeArm -179.159123 -0.000000 19.695538
RightHand 6.527806 -0.000000 -1.804891
RightHandThumb1 -24.326973 -0.000000 -32.862282
LeftUpLeg -8.833658 7.872211 6.521184
LeftLeg 15.893140 -0.000000 -0.000000
LeftFoot -19.445354 0.546029 -18.210892
LeftToeBase 13.443915 -0.000000 -0.000000
RightUpLeg -13.543259 -7.487239 4.489867
RightLeg 21.620707 -0.000000 -0.000000
RightFoot -18.677722 -13.325131 4.844442
RightToeBase 0.909355 -0.000000 -0.000000
5
root -0.460672 36.797515 2.494470 7.805472 -0.171130 -1.391306
Spine -3.799568 6.584727 2.092402
Head -3.007083 -1.731496 -0.626656
LeftShoulder -7.845154 -8.368371 15.071039
LeftArm -9.682223 -19.623336 -26.784624
LeftForeArm -3.741910 -0.000000 33.930015
LeftHand -8.975475 -0.000000 25.089994
LeftHandThumb1 -26.253704 0.000000 33.147579
RightShoulder -8.322981 -8.980456 -15.931539
RightArm 1.788468 33.240654 32.522320
RightForeArm -178.969506 -0.000000 19.780966
RightHand 6.395992 -0.000000 -1.831683
RightHandThumb1 -24.326973 -0.000000 -32.862282
LeftUpLeg -9.033815 7.856550 6.515521
LeftLeg 16.712202 -0.000000 -0.000000
LeftFoot -19.697054 0.498703 -18.297581
LeftToeBase 13.304017 -0.000000 -0.000000
RightUpLeg -13.421639 -7.116788 4.490769
RightLeg 21.736482 -0.000000 -0.000000
RightFoot -18.924982 -13.930051 4.646946
RightToeBase 1.100736 -0.000000 -0.000000
6
root -0.516211 36.769396 2.480143 7.647104 -0.232739 -1.356715
Spine -3.587842 6.558408 2.042115
Head -2.895564 -1.690671 -0.674339
LeftShoulder -7.778607 -8.322368 14.907829
LeftArm -9.991540 -20.236967 -26.896873
LeftForeArm -5.386183 -0.000000 35.151714
LeftHand -8.788480 -0.000000 25.334444
LeftHandThumb1 -26.253704 0.000000 33.147579
RightShoulder -8.259406 -9.179217 -15.722165
RightArm 2.236835 32.869592 33.020959
RightForeArm -178.863354 -0.000000 19.923974
RightHand 6.333450 -0.000000 -1.730005
RightHandThumb1 -24.326973 -0.000000 -32.862282
LeftUpLeg -9.317867 7.912690 6.581195
LeftLeg 17.650580 -0.000000 -0.000000
LeftFoot -19.953184 0.403233 -18.353067
LeftToeBase 13.153439 -0.000000 -0.000000
RightUpLeg -13.275617 -6.758707 4.544147
RightLeg 21.778699 -0.000000 -0.000000
RightFoot -19.121519 -14.430728 4.441779
RightToeBase 1.306343 -0.000000 -0.000000
7
root -0.566838 36.742152 2.467580 7.481787 -0.317744 -1.309029
Spine -3.372418 6.561818 1.992888
Head -2.774540 -1.679889 -0.705634
LeftShoulder -7.735285 -8.391519 14.724596
LeftArm -10.336423 -20.863030 -26.969392
LeftForeArm -6.820088 -0.000000 36.368061
LeftHand -8.332201 -0.000000 24.919742
LeftHandThumb1 -26.253704 0.000000 33.147579
RightShoulder -8.161366 -9.323343 -15.513536
RightArm 2.589260 32.452168 33.443437
RightForeArm -178.844934 -0.000000 20.072006
RightHand 6.207050 -0.000000 -1.745863
RightHandThumb1 -24.326973 -0.000000 -32.862282
LeftUpLeg -9.561215 7.921235 6.636071
LeftLeg 18.533767 -0.000000 -0.000000
LeftFoot -20.175874 0.314438 -18.496952
LeftToeBase 13.035627 -0.000000 -0.000000
RightUpLeg -13.105926 -6.426199 4.540941
RightLeg 21.785734 -0.000000 -0.000000
RightFoot -19.306041 -14.720004 4.307980
RightToeBase 1.474104 -0.000000 -0.000000
8
root -0.618305 36.714109 2.453822 7.340967 -0.378799 -1.281648
Spine -3.197098 6.540430 1.982007
Head -2.667378 -1.678839 -0.785321
LeftShoulder -7.695040 -8.387279 14.497664
LeftArm -10.658406 -21.449476 -27.019408
LeftForeArm -8.365373 -0.000000 37.681299
LeftHand -7.913108 -0.000000 24.590727
LeftHandThumb1 -26.253704 0.000000 33.147579
RightShoulder -8.074164 -9.565168 -15.296984
RightArm 3.016183 32.013705 33.879600
RightForeArm -178.797341 -0.000000 20.241342
RightHand 6.091054 -0.000000 -1.789371
RightHandThumb1 -24.326973 -0.000000 -32.862282
LeftUpLeg -9.862478 7.927926 6.710464
LeftLeg 19.476164 -0.000000 -0.000000
LeftFoot -20.396574 0.199968 -18.644095
LeftToeBase 12.854285 -0.000000 -0.000000
RightUpLeg -12.971225 -6.188242 4.551615
RightLeg 21.817357 -0.000000 -0.000000
RightFoot -19.491451 -14.855072 4.225591
RightToeBase 1.649837 -0.000000 -0.000000
9
root -0.681806 36.686694 2.437961 7.200567 -0.430702 -1.310761
Spine -3.016876 6.535813 2.008083
Head -2.519548 -1.664467 -0.869198
LeftShoulder -7.700953 -8.367999 14.314440
LeftArm -10.869092 -22.098146 -27.151793
LeftForeArm -9.694122 -0.000000 39.000977
LeftHand -7.468010 -0.000000 24.311587
LeftHandThumb1 -26.253704 0.000000 33.147579
RightShoulder -7.943208 -9.749626 -15.040652
RightArm 3.295120 31.540204 34.232759
RightForeArm -178.777409 -0.000000 20.495420
RightHand 6.115304 -0.000000 -1.853982
RightHandThumb1 -24.326973 -0.000000 -32.862282
LeftUpLeg -10.203138 7.980028 6.866238
LeftLeg 20.490997 -0.000000 -0.000000
LeftFoot -20.581192 0.029153 -18.764752
LeftToeBase 12.661376 -0.000000 -0.000000
RightUpLeg -12.787563 -6.012804 4.618157
RightLeg 21.761763 -0.000000 -0.000000
RightFoot -19.671019 -14.762200 4.279117
RightToeBase 1.899680 -0.000000 -0.000000
10
root -0.741894 36.660971 2.420658 7.071168 -0.458483 -1.383002
Spine -2.851603 6.503265 2.128052
Head -2.381986 -1.654721 -0.978191
LeftShoulder -7.740515 -8.319549 14.060011
LeftArm -11.089498 -22.824664 -27.290989
LeftForeArm -10.507217 -0.000000 40.475584
LeftHand -6.996841 0.000000 24.053374
LeftHandThumb1 -26.253704 0.000000 33.147579
RightShoulder -7.814193 -9.999691 -14.782442
RightArm 3.666685 31.136849 34.584040
RightForeArm -178.792420 0.000000 20.712712
RightHand 6.095958 -0.000000 -1.943081
RightHandThumb1 -24.326973 -0.000000 -32.862282
LeftUpLeg -10.589600 7.976103 7.062241
LeftLeg 21.566683 -0.000000 -0.000000
LeftFoot -20.736475 -0.121494 -18.952804
LeftToeBase 12.370940 -0.000000 -0.000000
RightUpLeg -12.644469 -6.051070 4.733002
RightLeg 21.733792 -0.000000 -0.000000
RightFoot -19.755430 -14.577579 4.256789
RightToeBase 1.983952 -0.000000 -0.000000
11
root -0.813486 36.636181 2.400929 6.921691 -0.480150 -1.511975
Spine -2.648289 6.494059 2.299479
Head -2.259671 -1.687301 -1.142869
LeftShoulder -7.763419 -8.327461 13.843792
LeftArm -11.295242 -23.498739 -27.469137
LeftForeArm -10.901144 -0.000000 41.932815
LeftHand -6.543068 -0.000000 23.916045
LeftHandThumb1 -26.253704 0.000000 33.147579
RightShoulder -7.730387 -10.278042 -14.517953
RightArm 4.116468 30.813267 35.006303
RightForeArm -178.829936 -0.000000 20.906071
RightHand 6.038389 -0.000000 -2.147029
RightHandThumb1 -24.326973 -0.000000 -32.862282
LeftUpLeg -11.007922 8.020765 7.346852
LeftLeg 22.746477 -0.000000 -0.000000
LeftFoot -20.836754 -0.365468 -19.111597
LeftToeBase 12.075455 -0.000000 -0.000000
RightUpLeg -12.443829 -6.165135 4.901899
RightLeg 21.622467 -0.000000 -0.000000
RightFoot -19.879093 -14.143600 4.463355
RightToeBase 2.077937 -0.000000 -0.000000
12
root -0.882784 36.612054 2.380363 6.805335 -0.497171 -1.692397
Spine -2.489144 6.500266 2.566943
Head -2.103327 -1.687923 -1.368906
LeftShoulder -7.791718 -8.316721 13.593488
LeftArm -11.490604 -24.177799 -27.683651
LeftForeArm -10.954780 -0.000000 43.447035
LeftHand -6.217157 -0.000000 23.883253
LeftHandThumb1 -26.253704 0.000000 33.147579
RightShoulder -7.652749 -10.512439 -14.264971
RightArm 4.510832 30.347862 35.353981
RightForeArm -178.831558 -0.000000 21.113320
RightHand 5.955746 -0.000000 -2.229160
RightHandThumb1 -24.326973 -0.000000 -32.862282
LeftUpLeg -11.555345 8.078211 7.670881
LeftLeg 24.124166 -0.000000 -0.000000
LeftFoot -20.914224 -0.636378 -19.346665
LeftToeBase 11.647816 -0.000000 -0.000000
RightUpLeg -12.359747 -6.387205 5.148952
RightLeg 21.652189 -0.000000 -0.000000
RightFoot -19.902327 -13.729347 4.570608
RightToeBase 1.986601 -0.000000 -0.000000
13
root -0.952103 36.590142 2.355100 6.705717 -0.523608 -1.854092
Spine -2.354552 6.520287 2.802939
Head -1.947609 -1.755529 -1.567365
LeftShoulder -7.846433 -8.307560 13.379436
LeftArm -11.601626 -24.748849 -27.955246
LeftForeArm -10.951096 -0.000000 44.926308
LeftHand -6.139780 -0.000000 24.005440
LeftHandThumb1 -26.253704 0.000000 33.147579
RightShoulder -7.622207 -10.872183 -13.977798
RightArm 5.091031 29.991885 35.789408
RightForeArm -179.014259 0.000000 21.245256
RightHand 5.736139 -0.000000 -2.368081
RightHandThumb1 -24.326973 -0.000000 -32.862282
LeftUpLeg -12.117424 8.114404 7.980128
LeftLeg 25.475338 -0.000000 -0.000000
LeftFoot -20.880975 -0.891110 -19.636141
LeftToeBase 11.120098 -0.000000 -0.000000
RightUpLeg -12.307964 -6.652944 5.385279
RightLeg 21.686829 -0.000000 -0.000000
RightFoot -19.915896 -13.260725 4.679438
RightToeBase 1.906119 -0.000000 -0.000000
